<?xml version="1.0" encoding="UTF-8" standalone="no"?>
<svg width="321px" height="321px" viewBox="0 0 321 321" version="1.1" xmlns="http://www.w3.org/2000/svg" xmlns:xlink="http://www.w3.org/1999/xlink" xmlns:sketch="http://www.bohemiancoding.com/sketch/ns">
    <!-- Generator: Sketch 3.1 (8751) - http://www.bohemiancoding.com/sketch -->
    <title>Oval 37 + add-jam-logo 2</title>
    <desc>Created with Sketch.</desc>
    <defs>
        <path d="M160.209844,-0.0331076498 L170.746986,12.6961886 L182.985912,1.59468702 L191.609452,15.6949869 L205.30643,6.44760429 L211.829215,21.6331006 L226.70279,14.4342439 L231.002954,30.3886628 L246.749909,25.3790594 L248.737501,41.7861271 L265.029956,39.0644312 L264.660002,55.5846611 L281.177331,55.2161585 L278.459987,71.5158672 L294.864153,73.4962056 L289.857451,89.2446113 L305.810419,93.5389716 L298.610112,108.413997 L313.792707,114.938233 L304.549677,128.638113 L318.652878,137.254399 L307.549926,149.500579 L320.279222,160.03627 L307.549926,170.57051 L318.652878,182.813789 L304.549677,191.435878 L313.792707,205.129954 L298.610112,211.657092 L305.810419,226.532117 L289.857451,230.829379 L294.864153,246.579236 L278.459987,248.559574 L281.177331,264.863635 L264.660002,264.493682 L265.029956,281.012461 L248.737501,278.29947 L246.749909,294.69348 L231.002954,289.682426 L226.70279,305.64555 L211.829215,298.445242 L205.30643,313.622034 L191.609452,304.379004 L182.985912,318.482205 L170.746986,307.379253 L160.209844,320.111451 L149.669801,307.379253 L137.427973,318.482205 L128.807335,304.379004 L115.108906,313.622034 L108.586121,298.445242 L93.7125459,305.64555 L89.4123824,289.682426 L73.6683292,294.69348 L71.6850891,278.29947 L55.3839297,281.012461 L55.7596862,264.493682 L39.2365547,264.863635 L41.9582506,248.559574 L25.5497321,246.579236 L30.5607863,230.829379 L14.6063674,226.532117 L21.8052241,211.657092 L6.62553099,205.129954 L15.870012,191.435878 L1.76971213,182.813789 L12.8683122,170.57051 L0.141917454,160.03627 L12.8683122,149.500579 L1.76971213,137.254399 L15.870012,128.638113 L6.62553099,114.938233 L21.8052241,108.413997 L14.6063674,93.5389716 L30.5607863,89.2446113 L25.5497321,73.4962056 L41.9582506,71.5158672 L39.2365547,55.2161585 L55.7596862,55.5846611 L55.3839297,39.0644312 L71.6850891,41.7861271 L73.6683292,25.3790594 L89.4181856,30.3886628 L93.7125459,14.4342439 L108.586121,21.6331006 L115.108906,6.44760429 L128.807335,15.6949869 L137.427973,1.59468702 L149.669801,12.6961886 L160.209844,-0.0331076498 Z M160.209844,296.968331 C84.7045449,296.968331 23.2777834,235.54302 23.2777834,160.037721 C23.2777834,84.5324214 84.7045449,23.1056599 160.209844,23.1056599 C235.712242,23.1056599 297.140454,84.5324214 297.140454,160.037721 C297.140454,235.54302 235.712242,296.968331 160.209844,296.968331 Z M160.209844,24.6043336 C85.5314994,24.6043336 24.7779079,85.3579251 24.7779079,160.03627 C24.7779079,234.714615 85.5300486,295.468206 160.209844,295.468206 C234.883837,295.468206 295.638879,234.714615 295.638879,160.03627 C295.64033,85.3579251 234.885287,24.6043336 160.209844,24.6043336 Z M160.209844,266.340547 C101.599081,266.340547 53.9113703,218.652837 53.9113703,160.03627 C53.9113703,101.425506 101.599081,53.7435992 160.209844,53.7435992 C218.820608,53.7435992 266.502515,101.425506 266.502515,160.03627 C266.502515,218.652837 218.820608,266.340547 160.209844,266.340547 Z M160.209844,55.2451745 C102.426035,55.2451745 55.4129456,102.252461 55.4129456,160.03627 C55.4129456,217.825882 102.426035,264.838972 160.209844,264.838972 C217.990752,264.838972 265.00094,217.825882 265.00094,160.03627 C265.00094,102.252461 217.992203,55.2451745 160.209844,55.2451745 Z M140.212053,155.358899 L130.821042,155.358899 L129.207755,144.612843 L117.79143,144.612843 L116.179594,155.358899 L107.63875,155.358899 L117.111006,96.1373497 L130.733994,96.1373497 L140.212053,155.358899 Z M118.975281,136.576876 L127.941209,136.576876 L123.452442,106.626615 L118.975281,136.576876 L118.975281,136.576876 Z M146.73919,96.1373497 L161.461882,96.1373497 C170.770198,96.1373497 175.344563,101.296385 175.344563,110.768641 L175.344563,140.720353 C175.344563,150.199864 170.770198,155.357448 161.461882,155.357448 L146.73919,155.357448 L146.73919,96.1373497 L146.73919,96.1373497 Z M156.047507,104.596949 L156.047507,146.902201 L161.300844,146.902201 C164.260471,146.902201 166.036247,145.373061 166.036247,141.152691 L166.036247,110.34791 C166.036247,106.123188 164.260471,104.596949 161.300844,104.596949 L156.047507,104.596949 L156.047507,104.596949 Z M183.476282,96.1373497 L198.198974,96.1373497 C207.50729,96.1373497 212.078753,101.296385 212.078753,110.768641 L212.078753,140.720353 C212.078753,150.199864 207.50729,155.357448 198.198974,155.357448 L183.476282,155.357448 L183.476282,96.1373497 L183.476282,96.1373497 Z M192.786049,104.596949 L192.786049,146.902201 L198.035034,146.902201 C200.996111,146.902201 202.771887,145.373061 202.771887,141.152691 L202.771887,110.34791 C202.771887,106.123188 200.99466,104.596949 198.035034,104.596949 L192.786049,104.596949 L192.786049,104.596949 Z M110.244382,216.698613 C111.25849,216.779857 112.44234,216.779857 113.457898,216.779857 C116.417525,216.779857 118.79248,215.680153 118.79248,211.111592 L118.79248,165.933761 L128.100796,165.933761 L128.100796,210.43407 C128.100796,222.27838 121.752107,225.320702 114.7346,225.320702 C113.040069,225.320702 111.772072,225.320702 110.244382,225.15386 L110.244382,216.698613 L110.244382,216.698613 Z M166.77035,225.15386 L157.380789,225.15386 L155.768953,214.409255 L144.352629,214.409255 L142.739342,225.15386 L134.204301,225.15386 L143.675106,165.933761 L157.299545,165.933761 L166.77035,225.15386 Z M145.533578,206.371837 L154.503858,206.371837 L150.015091,176.423026 L145.533578,206.371837 L145.533578,206.371837 Z M193.016726,207.97787 L199.368317,165.933761 L212.302175,165.933761 L212.302175,225.15386 L203.505991,225.15386 L203.505991,182.681766 L197.076057,225.15386 L188.281323,225.15386 L181.345061,183.276593 L181.345061,225.15386 L173.216243,225.15386 L173.216243,165.933761 L186.161708,165.933761 L193.016726,207.97787 L193.016726,207.97787 Z M90.7326081,161.405823 L225.040176,161.405823 M41.1849756,167.411793 C45.3290575,167.411793 48.6884997,164.052351 48.6884997,159.908269 C48.6884997,155.764187 45.3290575,152.404745 41.1849756,152.404745 C37.0408937,152.404745 33.6814515,155.764187 33.6814515,159.908269 C33.6814515,164.052351 37.0408937,167.411793 41.1849756,167.411793 Z M282.017342,168.47846 C286.161424,168.47846 289.520866,165.119018 289.520866,160.974936 C289.520866,156.830854 286.161424,153.471412 282.017342,153.471412 C277.87326,153.471412 274.513818,156.830854 274.513818,160.974936 C274.513818,165.119018 277.87326,168.47846 282.017342,168.47846 Z" id="path-1"></path>
        <linearGradient x1="50%" y1="-19.7554743%" x2="50%" y2="233.631732%" id="linearGradient-3">
            <stop stop-color="#E14658" offset="0%"></stop>
            <stop stop-color="#FF0000" offset="100%"></stop>
        </linearGradient>
    </defs>
    <g id="Desktop" stroke="none" stroke-width="1" fill="none" fill-rule="evenodd" sketch:type="MSPage">
        <g id="-513" sketch:type="MSArtboardGroup" transform="translate(-15.000000, -15.000000)">
            <g id="Oval-37-+-add-jam-logo-2" sketch:type="MSLayerGroup" transform="translate(15.000000, 15.000000)">
                <circle id="Oval-37" stroke="#979797" fill="#FFFFFF" sketch:type="MSShapeGroup" cx="160" cy="160" r="144.444444"></circle>
                <g id="add-jam-logo-2">
                    <g id="Add" transform="translate(107.672118, 96.506183)"></g>
                    <g id="Jam" transform="translate(110.573713, 165.461922)"></g>
                    <g id="Rectangle-6">
                        <mask id="mask-2" sketch:name="Mask" fill="white">
                            <use xlink:href="#path-1"></use>
                        </mask>
                        <use id="Mask" sketch:type="MSShapeGroup" xlink:href="#path-1"></use>
                        <rect fill="url(#linearGradient-3)" sketch:type="MSShapeGroup" mask="url(#mask-2)" x="-113.066667" y="-113.066667" width="1536" height="716.8"></rect>
                    </g>
                </g>
            </g>
        </g>
    </g>
</svg>