<?xml version="1.0" encoding="UTF-8" standalone="no"?>
<svg width="230px" height="162px" viewBox="0 0 230 162" version="1.1" xmlns="http://www.w3.org/2000/svg" xmlns:xlink="http://www.w3.org/1999/xlink" xmlns:sketch="http://www.bohemiancoding.com/sketch/ns">
    <!-- Generator: Sketch 3.1 (8751) - http://www.bohemiancoding.com/sketch -->
    <title>Email</title>
    <desc>Created with Sketch.</desc>
    <defs></defs>
    <g id="Desktop" stroke="none" stroke-width="1" fill="none" fill-rule="evenodd" sketch:type="MSPage">
        <g id="Desktop-HD-4" sketch:type="MSArtboardGroup" transform="translate(-604.000000, -2256.000000)">
            <g id="Email" sketch:type="MSLayerGroup" transform="translate(605.000000, 2257.000000)">
                <g id="smiley-and-letter" fill="#FFFFFF" sketch:type="MSShapeGroup">
                    <g id="Group-2121" transform="translate(0.000000, -0.614400)">
                        <path d="M220.75231,0 L7.43504052,0 L114.093675,107.848474 L220.75231,0" id="Fill-2118"></path>
                        <path d="M228.818336,154.343347 L228.818336,4.46208 L114.093675,120.47616 L-0.630985634,4.46208 L-0.630985634,154.343347 L67.2286512,85.7165568 L73.4679078,92.0080896 L5.60827092,160.63488 L222.579079,160.63488 L154.723855,92.0080896 L160.958699,85.7165568 L228.818336,154.343347" id="Fill-2120"></path>
                    </g>
                </g>
                <ellipse id="Oval-32" fill="#E53E4D" sketch:type="MSShapeGroup" cx="115" cy="99.84" rx="19.9162011" ry="19.84"></ellipse>
                <g id="add-jam-logo-2" transform="translate(98.938547, 83.840000)">
                    <path d="M16.0825175,-0.00331076498 L17.1402788,1.26961886 L18.3688721,0.159468702 L19.2345382,1.56949869 L20.6094968,0.644760429 L21.2642805,2.16331006 L22.7573506,1.44342439 L23.1890186,3.03886628 L24.7697621,2.53790594 L24.9692847,4.17861271 L26.6047878,3.90644312 L26.5676504,5.55846611 L28.2257271,5.52161585 L27.9529491,7.15158672 L29.5996662,7.34962056 L29.0970731,8.92446113 L30.6984971,9.35389716 L29.9757008,10.8413997 L31.4997916,11.4938233 L30.5719385,12.8638113 L31.9876754,13.7254399 L30.8731158,14.9500579 L32.1509345,16.003627 L30.8731158,17.057051 L31.9876754,18.2813789 L30.5719385,19.1435878 L31.4997916,20.5129954 L29.9757008,21.1657092 L30.6984971,22.6532117 L29.0970731,23.0829379 L29.5996662,24.6579236 L27.9529491,24.8559574 L28.2257271,26.4863635 L26.5676504,26.4493682 L26.6047878,28.1012461 L24.9692847,27.829947 L24.7697621,29.469348 L23.1890186,28.9682426 L22.7573506,30.564555 L21.2642805,29.8445242 L20.6094968,31.3622034 L19.2345382,30.4379004 L18.3688721,31.8482205 L17.1402788,30.7379253 L16.0825175,32.0111451 L15.024465,30.7379253 L13.7955804,31.8482205 L12.9302056,30.4379004 L11.5551014,31.3622034 L10.9003176,29.8445242 L9.40724754,30.564555 L8.97557959,28.9682426 L7.39512732,29.469348 L7.19604159,27.829947 L5.55966473,28.1012461 L5.5973847,26.4493682 L3.93872538,26.4863635 L4.21194031,24.8559574 L2.56478631,24.6579236 L3.06781636,23.0829379 L1.46624673,22.6532117 L2.18889732,21.1657092 L0.665097821,20.5129954 L1.59309652,19.1435878 L0.17765092,18.2813789 L1.29177365,17.057051 L0.0142462528,16.003627 L1.29177365,14.9500579 L0.17765092,13.7254399 L1.59309652,12.8638113 L0.665097821,11.4938233 L2.18889732,10.8413997 L1.46624673,9.35389716 L3.06781636,8.92446113 L2.56478631,7.34962056 L4.21194031,7.15158672 L3.93872538,5.52161585 L5.5973847,5.55846611 L5.55966473,3.90644312 L7.19604159,4.17861271 L7.39512732,2.53790594 L8.97616214,3.03886628 L9.40724754,1.44342439 L10.9003176,2.16331006 L11.5551014,0.644760429 L12.9302056,1.56949869 L13.7955804,0.159468702 L15.024465,1.26961886 L16.0825175,-0.00331076498 Z M16.0825175,29.6968331 C8.50298766,29.6968331 2.33671883,23.554302 2.33671883,16.0037721 C2.33671883,8.45324214 8.50298766,2.31056599 16.0825175,2.31056599 C23.6617561,2.31056599 29.8281706,8.45324214 29.8281706,16.0037721 C29.8281706,23.554302 23.6617561,29.6968331 16.0825175,29.6968331 Z M16.0825175,2.46043336 C8.58600073,2.46043336 2.48730745,8.53579251 2.48730745,16.003627 C2.48730745,23.4714615 8.58585509,29.5468206 16.0825175,29.5468206 C23.5785974,29.5468206 29.6774363,23.4714615 29.6774363,16.003627 C29.677582,8.53579251 23.5787431,2.46043336 16.0825175,2.46043336 Z M16.0825175,26.6340547 C10.19893,26.6340547 5.41184321,21.8652837 5.41184321,16.003627 C5.41184321,10.1425506 10.19893,5.37435992 16.0825175,5.37435992 C21.966105,5.37435992 26.7526093,10.1425506 26.7526093,16.003627 C26.7526093,21.8652837 21.966105,26.6340547 16.0825175,26.6340547 Z M16.0825175,5.52451745 C10.2819431,5.52451745 5.56257747,10.2252461 5.56257747,16.003627 C5.56257747,21.7825882 10.2819431,26.4838972 16.0825175,26.4838972 C21.8828007,26.4838972 26.6018751,21.7825882 26.6018751,16.003627 C26.6018751,10.2252461 21.8829463,5.52451745 16.0825175,5.52451745 Z M14.0750577,15.5358899 L13.1323497,15.5358899 L12.9704014,14.4612843 L11.8243841,14.4612843 L11.6625815,15.5358899 L10.8052167,15.5358899 L11.7560804,9.61373497 L13.1236114,9.61373497 L14.0750577,15.5358899 Z M11.9432239,13.6576876 L12.8432603,13.6576876 L12.3926596,10.6626615 L11.9432239,13.6576876 L11.9432239,13.6576876 Z M14.7302784,9.61373497 L16.2082022,9.61373497 C17.142609,9.61373497 17.6018023,10.1296385 17.6018023,11.0768641 L17.6018023,14.0720353 C17.6018023,15.0199864 17.142609,15.5357448 16.2082022,15.5357448 L14.7302784,15.5357448 L14.7302784,9.61373497 L14.7302784,9.61373497 Z M15.6646851,10.4596949 L15.6646851,14.6902201 L16.1920365,14.6902201 C16.4891359,14.6902201 16.6673956,14.5373061 16.6673956,14.1152691 L16.6673956,11.034791 C16.6673956,10.6123188 16.4891359,10.4596949 16.1920365,10.4596949 L15.6646851,10.4596949 L15.6646851,10.4596949 Z M18.4180974,9.61373497 L19.8960213,9.61373497 C20.830428,9.61373497 21.2893301,10.1296385 21.2893301,11.0768641 L21.2893301,14.0720353 C21.2893301,15.0199864 20.830428,15.5357448 19.8960213,15.5357448 L18.4180974,15.5357448 L18.4180974,9.61373497 L18.4180974,9.61373497 Z M19.3526498,10.4596949 L19.3526498,14.6902201 L19.8795643,14.6902201 C20.1768094,14.6902201 20.355069,14.5373061 20.355069,14.1152691 L20.355069,11.034791 C20.355069,10.6123188 20.1766637,10.4596949 19.8795643,10.4596949 L19.3526498,10.4596949 L19.3526498,10.4596949 Z M11.0667807,21.6698613 C11.1685809,21.6779857 11.2874207,21.6779857 11.3893665,21.6779857 C11.6864659,21.6779857 11.9248736,21.5680153 11.9248736,21.1111592 L11.9248736,16.5933761 L12.8592804,16.5933761 L12.8592804,21.043407 C12.8592804,22.227838 12.221973,22.5320702 11.5175271,22.5320702 C11.3474231,22.5320702 11.2201364,22.5320702 11.0667807,22.515386 L11.0667807,21.6698613 L11.0667807,21.6698613 Z M16.7410879,22.515386 L15.7985255,22.515386 L15.6367228,21.4409255 L14.4907056,21.4409255 L14.3287573,22.515386 L13.4719751,22.515386 L14.4226931,16.5933761 L15.7903698,16.5933761 L16.7410879,22.515386 Z M14.6092541,20.6371837 L15.5097274,20.6371837 L15.0591266,17.6423026 L14.6092541,20.6371837 L14.6092541,20.6371837 Z M19.3758061,20.797787 L20.0134047,16.5933761 L21.3117582,16.5933761 L21.3117582,22.515386 L20.4287613,22.515386 L20.4287613,18.2681766 L19.7832983,22.515386 L18.900447,22.515386 L18.2041567,18.3276593 L18.2041567,22.515386 L17.3881529,22.515386 L17.3881529,16.5933761 L18.6876715,16.5933761 L19.3758061,20.797787 L19.3758061,20.797787 Z M9.10810922,16.1405823 L22.5904507,16.1405823 M4.13431581,16.7411793 C4.55031566,16.7411793 4.88755016,16.4052351 4.88755016,15.9908269 C4.88755016,15.5764187 4.55031566,15.2404745 4.13431581,15.2404745 C3.71831597,15.2404745 3.38108146,15.5764187 3.38108146,15.9908269 C3.38108146,16.4052351 3.71831597,16.7411793 4.13431581,16.7411793 Z M28.3100509,16.847846 C28.7260508,16.847846 29.0632853,16.5119018 29.0632853,16.0974936 C29.0632853,15.6830854 28.7260508,15.3471412 28.3100509,15.3471412 C27.8940511,15.3471412 27.5568166,15.6830854 27.5568166,16.0974936 C27.5568166,16.5119018 27.8940511,16.847846 28.3100509,16.847846 Z" id="Shape" fill="#FFFFFF" sketch:type="MSShapeGroup"></path>
                    <g id="Add" transform="translate(10.808566, 9.650618)"></g>
                    <g id="Jam" transform="translate(11.099840, 16.546192)"></g>
                </g>
            </g>
        </g>
    </g>
</svg>