<?xml version="1.0" encoding="UTF-8" standalone="no"?>
<svg width="43px" height="50px" viewBox="0 0 43 50" version="1.1" xmlns="http://www.w3.org/2000/svg" xmlns:xlink="http://www.w3.org/1999/xlink" xmlns:sketch="http://www.bohemiancoding.com/sketch/ns">
    <!-- Generator: Sketch 3.2.2 (9983) - http://www.bohemiancoding.com/sketch -->
    <title>Fill 30</title>
    <desc>Created with Sketch.</desc>
    <defs></defs>
    <g id="Desktop" stroke="none" stroke-width="1" fill="none" fill-rule="evenodd" sketch:type="MSPage">
        <g id="A4" sketch:type="MSArtboardGroup" transform="translate(-18.000000, -13.000000)" fill="#464E58">
            <path d="M21.3776138,47.0271978 C19.7958049,47.0271978 18.5145,45.7228399 18.5145,44.1216821 L18.5145,31.7029453 C18.5145,30.1017874 19.7958049,28.7974296 21.3776138,28.7974296 C22.9586298,28.7974296 24.2415204,30.1017874 24.2415204,31.7029453 L24.2415204,44.1216821 C24.2415204,45.7228399 22.9586298,47.0271978 21.3776138,47.0271978 L21.3776138,47.0271978 Z M33.787876,22.9942086 C34.578384,22.9942086 35.2198293,22.3459349 35.2198293,21.5414507 C35.2198293,20.7369665 34.578384,20.0886928 33.787876,20.0886928 C32.9965751,20.0886928 32.3559227,20.7369665 32.3559227,21.5414507 C32.3559227,22.3459349 32.9965751,22.9942086 33.787876,22.9942086 L33.787876,22.9942086 Z M45.2419169,22.9942086 C46.0332178,22.9942086 46.6738702,22.3459349 46.6738702,21.5414507 C46.6738702,20.7369665 46.0332178,20.0886928 45.2419169,20.0886928 C44.4514089,20.0886928 43.8107564,20.7369665 43.8107564,21.5414507 C43.8107564,22.3459349 44.4514089,22.9942086 45.2419169,22.9942086 L45.2419169,22.9942086 Z M32.9434517,17.1753665 L32.4058745,16.3630718 L31.8754333,15.5585876 L30.6853104,13.7465455 C30.5394193,13.5200402 30.5988858,13.2232402 30.8177225,13.0748402 C31.0373521,12.9264402 31.3338917,12.9889244 31.4797829,13.2076192 L32.7579162,15.1524402 L33.2939076,15.9647349 L33.837035,16.7926507 C35.5607706,16.1131349 37.4851066,15.7382297 39.5141036,15.7382297 C41.5446863,15.7382297 43.4690223,16.1131349 45.1927579,16.7926507 L45.7374711,15.9647349 L46.2734625,15.1524402 L47.55001,13.2076192 C47.6959011,12.9811139 47.9924408,12.9264402 48.2120704,13.0748402 C48.4309071,13.2232402 48.4903736,13.5200402 48.3444824,13.7465455 L47.1535667,15.5585876 L46.6239184,16.3630718 L46.0863412,17.1753665 C50.1379921,19.0889454 52.8782084,22.7130296 52.8782084,26.8682296 L26.1515844,26.8682296 C26.1515844,22.7130296 28.8918008,19.0889454 32.9434517,17.1753665 L32.9434517,17.1753665 Z M49.8557244,53.1584609 L47.6737003,53.1584609 C47.7466459,53.4162083 47.7886689,53.6817662 47.7886689,53.9629451 L47.7886689,60.0942082 C47.7886689,61.6953661 46.5057782,62.9919135 44.9239693,62.9919135 C43.3429533,62.9919135 42.0600627,61.6953661 42.0600627,60.0942082 L42.0600627,53.9629451 C42.0600627,53.6817662 42.1012928,53.4162083 42.1742383,53.1584609 L36.8555545,53.1584609 C36.9277072,53.4162083 36.9697302,53.6817662 36.9697302,53.9629451 L36.9697302,60.0942082 C36.9697302,61.6953661 35.6868396,62.9919135 34.1050307,62.9919135 C32.5240146,62.9919135 31.241124,61.6953661 31.241124,60.0942082 L31.241124,53.9629451 C31.241124,53.6817662 31.283147,53.4162083 31.3560926,53.1584609 L29.1740684,53.1584609 C27.5066278,53.1584609 26.1515844,51.7838083 26.1515844,50.0889241 L26.1515844,28.7974296 L52.8782084,28.7974296 L52.8782084,50.0889241 C52.8782084,51.7838083 51.5231651,53.1584609 49.8557244,53.1584609 L49.8557244,53.1584609 Z M57.6521791,47.0271978 C56.0695773,47.0271978 54.7882724,45.7228399 54.7882724,44.1216821 L54.7882724,31.7029453 C54.7882724,30.1017874 56.0695773,28.7974296 57.6521791,28.7974296 C59.233988,28.7974296 60.5145,30.1017874 60.5145,31.7029453 L60.5145,44.1216821 C60.5145,45.7228399 59.233988,47.0271978 57.6521791,47.0271978 L57.6521791,47.0271978 Z" id="Fill-30" sketch:type="MSShapeGroup"></path>
        </g>
    </g>
</svg>