<?xml version="1.0" encoding="UTF-8" standalone="no"?>
<svg width="45px" height="50px" viewBox="0 0 45 50" version="1.1" xmlns="http://www.w3.org/2000/svg" xmlns:xlink="http://www.w3.org/1999/xlink" xmlns:sketch="http://www.bohemiancoding.com/sketch/ns">
    <!-- Generator: Sketch 3.1 (8751) - http://www.bohemiancoding.com/sketch -->
    <title>github</title>
    <desc>Created with Sketch.</desc>
    <defs></defs>
    <g id="Desktop" stroke="none" stroke-width="1" fill="none" fill-rule="evenodd" sketch:type="MSPage">
        <g id="A4" sketch:type="MSArtboardGroup" transform="translate(-23.000000, -20.000000)" fill="#464E58">
            <path d="M54.7647059,62.3021218 C54.7647059,58.8209995 52.9872059,56.9819159 51.5194118,55.9835563 C59.4725,55.169105 68,52.3316619 68,38.7093075 C68,34.8866411 66.6367647,31.7601991 64.3814706,29.3431179 C64.7401471,28.4235761 65.9577941,24.7979544 64.0254412,20.0032009 C64.0254412,20.0032009 60.0588235,20.0032009 54.3491176,23.6682316 C51.5194118,22.8931893 48.5083824,22.6304631 45.5,22.6304631 C42.5260294,22.6304631 39.4819118,22.8931893 36.6866176,23.6682316 C29.9498529,19.1362044 26.9772059,20.0820188 26.9772059,20.0820188 C25.0766176,24.8767722 26.2585294,28.4235761 26.6158824,29.3431179 C24.3619118,31.7601991 23,34.8866411 23,38.7093075 C23,52.3316619 31.5261765,55.169105 39.4819118,55.9835563 C38.0114706,56.9819159 36.2352941,58.8209995 36.2352941,62.3021218 L36.2352941,68.7126415 C39.0239706,69.5402291 42.2785294,70 45.3385294,70 C48.5269118,70 51.8741176,69.5139565 54.7647059,68.607551 L54.7647059,62.3021218" id="github" sketch:type="MSShapeGroup"></path>
        </g>
    </g>
</svg>