<?xml version="1.0" encoding="UTF-8" standalone="no"?>
<svg width="44px" height="50px" viewBox="0 0 44 50" version="1.1" xmlns="http://www.w3.org/2000/svg" xmlns:xlink="http://www.w3.org/1999/xlink" xmlns:sketch="http://www.bohemiancoding.com/sketch/ns">
    <!-- Generator: Sketch 3.2.2 (9983) - http://www.bohemiancoding.com/sketch -->
    <title>Fill 29</title>
    <desc>Created with Sketch.</desc>
    <defs></defs>
    <g id="Desktop" stroke="none" stroke-width="1" fill="none" fill-rule="evenodd" sketch:type="MSPage">
        <g id="A4" sketch:type="MSArtboardGroup" transform="translate(-20.000000, -13.000000)" fill="#464E58">
            <path d="M41.9289519,24.5127828 C41.5196031,21.6384235 43.0493575,18.6547136 44.7967503,16.7801315 C46.7484246,14.6634159 50.0389287,13.0934533 52.7566588,12.9919135 C53.1039374,15.920948 51.8287492,18.8577934 49.9446449,20.974509 C48.0558264,23.0912247 44.9617469,24.7314841 41.9289519,24.5127828 L41.9289519,24.5127828 Z M56.7487913,39.5641152 C56.8218612,47.1249297 63.9175017,49.6399941 64,49.6790479 C63.9355727,49.8508846 62.8630947,53.2641862 60.2561481,56.7868385 C58.0035513,59.8330344 55.6700277,62.8636089 51.9890316,62.926095 C48.3677486,62.988581 47.2064867,60.9421622 43.0674286,60.9421622 C38.9307275,60.9421622 37.638254,62.8636089 34.2149669,62.988581 C30.6636111,63.1135532 27.9568808,59.7002515 25.686213,56.6696771 C21.0427366,50.4601238 17.4968806,39.1189019 22.2621402,31.472169 C24.6231633,27.6683294 28.8525767,25.2626157 33.4410542,25.2001296 C36.9295542,25.1454543 40.2255582,27.3793313 42.355586,27.3793313 C44.4911137,27.3793313 48.4950317,24.6924303 52.7016599,25.0829682 C54.4624096,25.153265 59.4083797,25.7468827 62.5833861,30.0349893 C62.3303913,30.1912045 56.6804356,33.2295897 56.7487913,39.5641152 L56.7487913,39.5641152 Z" id="Fill-29" sketch:type="MSShapeGroup"></path>
        </g>
    </g>
</svg>