<?xml version="1.0" encoding="UTF-8" standalone="no"?>
<svg width="151px" height="160px" viewBox="0 0 151 160" version="1.1" xmlns="http://www.w3.org/2000/svg" xmlns:xlink="http://www.w3.org/1999/xlink" xmlns:sketch="http://www.bohemiancoding.com/sketch/ns">
    <!-- Generator: Sketch 3.1 (8751) - http://www.bohemiancoding.com/sketch -->
    <title>joystick</title>
    <desc>Created with Sketch.</desc>
    <defs>
        <path id="path-1" d="M-0.466304348,156.734694 L149.533696,156.734694 L149.533696,0 L-0.466304348,0 L-0.466304348,156.734694 L-0.466304348,156.734694 Z"></path>
    </defs>
    <g id="Desktop" stroke="none" stroke-width="1" fill="none" fill-rule="evenodd" sketch:type="MSPage">
        <g id="Desktop-HD-5" sketch:type="MSArtboardGroup" transform="translate(-652.000000, -2104.000000)">
            <g id="joystick" sketch:type="MSLayerGroup" transform="translate(653.000000, 2104.000000)">
                <g id="Group-2019" transform="translate(0.000000, 3.265306)">
                    <mask id="mask-2" sketch:name="Clip 2018" fill="white">
                        <use xlink:href="#path-1"></use>
                    </mask>
                    <g id="Clip-2018"></g>
                    <path d="M25.6206522,104.489796 L41.925,104.489796 L41.925,111.020408 L25.6206522,111.020408 L25.6206522,104.489796 Z M77.7945652,58.4489796 L77.7945652,111.020408 L71.2728261,111.020408 L71.2728261,58.4489796 C72.3554348,58.5795918 73.4217391,58.7755102 74.5336957,58.7755102 C75.648913,58.7755102 76.7119565,58.5795918 77.7945652,58.4489796 L77.7945652,58.4489796 Z M136.490217,111.020408 L84.3163043,111.020408 L84.3163043,56.9795918 C95.6869565,52.9306122 103.881522,42.155102 103.881522,29.3877551 C103.881522,13.1591837 90.7369565,0 74.5336957,0 C58.3336957,0 45.1858696,13.1591837 45.1858696,29.3877551 C45.1858696,42.155102 53.3836957,52.9306122 64.751087,56.9795918 L64.751087,111.020408 L48.4467391,111.020408 L48.4467391,97.9591837 L19.098913,97.9591837 L19.098913,111.020408 L12.5771739,111.020408 C5.37391304,111.020408 -0.466304348,116.865306 -0.466304348,124.081633 L-0.466304348,143.673469 C-0.466304348,150.889796 5.37391304,156.734694 12.5771739,156.734694 L136.490217,156.734694 C143.693478,156.734694 149.533696,150.889796 149.533696,143.673469 L149.533696,124.081633 C149.533696,116.865306 143.693478,111.020408 136.490217,111.020408 L136.490217,111.020408 Z" id="Fill-2017" fill="#FFFFFF" sketch:type="MSShapeGroup" mask="url(#mask-2)"></path>
                </g>
                <path d="M16.3043478,106.006907 L16.3043478,94.9249606 C16.3043478,92.9996354 17.8734261,91.4285714 19.8089823,91.4285714 L48.6692785,91.4285714 C50.6095781,91.4285714 52.173913,92.9939582 52.173913,94.9249606 L52.173913,106.006907 L52.173913,114.285714 L16.3043478,114.285714 L16.3043478,106.006907 Z M75,65.3061224 C93.0092853,65.3061224 107.608696,50.686849 107.608696,32.6530612 C107.608696,14.6192735 93.0092853,0 75,0 C56.9907147,0 42.3913043,14.6192735 42.3913043,32.6530612 C42.3913043,50.686849 56.9907147,65.3061224 75,65.3061224 Z" id="Oval-28" fill="#E14658" sketch:type="MSShapeGroup"></path>
            </g>
        </g>
    </g>
</svg>