<?xml version="1.0" encoding="UTF-8" standalone="no"?>
<svg width="161px" height="160px" viewBox="0 0 161 160" version="1.1" xmlns="http://www.w3.org/2000/svg" xmlns:xlink="http://www.w3.org/1999/xlink" xmlns:sketch="http://www.bohemiancoding.com/sketch/ns">
    <!-- Generator: Sketch 3.1 (8751) - http://www.bohemiancoding.com/sketch -->
    <title>rocket</title>
    <desc>Created with Sketch.</desc>
    <defs></defs>
    <g id="Desktop" stroke="none" stroke-width="1" fill="none" fill-rule="evenodd" sketch:type="MSPage">
        <g id="Desktop-HD-5" sketch:type="MSArtboardGroup" transform="translate(-515.000000, -2094.000000)">
            <g id="rocket" sketch:type="MSLayerGroup" transform="translate(516.000000, 2094.000000)">
                <path d="M48.8693333,132.576 C42.056,139.386667 23.1573333,145.138667 10.6773333,148.178667 C13.7866667,135.616 19.6053333,116.586667 26.2453333,109.944 C33.48,102.709333 42.8346667,100.725333 46.7866667,100.314667 L42.3226667,95.856 C36.9733333,96.9093333 29.1466667,99.5013333 22.4746667,106.173333 C11.1626667,117.490667 3.61866667,155.2 3.61866667,155.2 C3.61866667,155.2 41.016,147.970667 52.64,136.346667 C59.4373333,129.549333 62.016,121.845333 63.0213333,116.554667 L58.552,112.08 C58.2346667,115.914667 56.3946667,125.042667 48.8693333,132.576 Z" id="Fill-2479" fill="#E14658" sketch:type="MSShapeGroup"></path>
                <path d="M119.618667,53.3333333 C112.266667,53.3333333 106.285333,47.3546667 106.285333,40 C106.285333,32.6453333 112.266667,26.6666667 119.618667,26.6666667 C126.973333,26.6666667 132.952,32.6453333 132.952,40 C132.952,47.3546667 126.973333,53.3333333 119.618667,53.3333333 L119.618667,53.3333333 Z M57.7546667,104.88 L54.7333333,101.864 L73.3706667,83.2293333 L76.3866667,86.2506667 L57.7546667,104.88 L57.7546667,104.88 Z M105.938667,16 L58.2853333,64 L31.6186667,64 L-0.381333333,96 L42.2853333,96 L51.4533333,105.146667 L32.9466667,123.645333 L35.968,126.666667 L54.4746667,108.162667 L63.6933333,117.874667 L63.6186667,117.946667 L63.6186667,160 L95.6186667,128 L95.6186667,101.333333 L143.618667,53.688 C156.946667,40.3546667 159.618667,0 159.618667,0 C159.618667,0 119.272,2.66666667 105.938667,16 L105.938667,16 Z" id="Fill-2481" fill="#FFFFFF" sketch:type="MSShapeGroup"></path>
                <circle id="Oval-33" fill="#E14658" sketch:type="MSShapeGroup" cx="51.2" cy="108.8" r="8"></circle>
                <rect id="Rectangle-123" fill="#E14658" sketch:type="MSShapeGroup" transform="translate(40.366043, 119.089592) rotate(-45.000000) translate(-40.366043, -119.089592) " x="18.5330952" y="116.646089" width="43.6658946" height="4.88700577"></rect>
            </g>
        </g>
    </g>
</svg>