<?xml version="1.0" encoding="UTF-8" standalone="no"?>
<svg width="161px" height="148px" viewBox="0 0 161 148" version="1.1" xmlns="http://www.w3.org/2000/svg" xmlns:xlink="http://www.w3.org/1999/xlink" xmlns:sketch="http://www.bohemiancoding.com/sketch/ns">
    <!-- Generator: Sketch 3.1.1 (8761) - http://www.bohemiancoding.com/sketch -->
    <title>Group 2550</title>
    <desc>Created with Sketch.</desc>
    <defs>
        <path id="path-1" d="M-0.4576,148 L159.5424,148 L159.5424,0 L-0.4576,0 L-0.4576,148 L-0.4576,148 Z"></path>
    </defs>
    <g id="Desktop" stroke="none" stroke-width="1" fill="none" fill-rule="evenodd" sketch:type="MSPage">
        <g id="Desktop-HD-5" sketch:type="MSArtboardGroup" transform="translate(-719.000000, -2036.000000)">
            <g id="Group-2550" sketch:type="MSLayerGroup" transform="translate(720.000000, 2036.000000)">
                <mask id="mask-2" sketch:name="Clip 2549" fill="white">
                    <use xlink:href="#path-1"></use>
                </mask>
                <g id="Clip-2549"></g>
                <path d="M153.7376,109.391304 L103.424,16.5985217 C96.7008,5.6593913 88.6688,0 79.5424,0 C70.4192,0 62.3872,5.6593913 55.664,16.5985217 L5.3504,109.391304 C1.5488,114.905913 -0.4576,119.825304 -0.4576,125.478261 C-0.4576,138.495826 10.432,148 23.8048,148 L135.28,148 C148.656,148 159.5424,138.495826 159.5424,125.478261 C159.5424,119.825304 157.536,114.905913 153.7376,109.391304 L153.7376,109.391304 Z" id="Fill-2548" fill="#FFFFFF" sketch:type="MSShapeGroup" mask="url(#mask-2)"></path>
                <path d="M79.5424,122.26087 C74.2432,122.26087 69.9424,117.936696 69.9424,112.608696 C69.9424,107.280696 74.2432,102.956522 79.5424,102.956522 C84.8448,102.956522 89.1424,107.280696 89.1424,112.608696 C89.1424,117.936696 84.8448,122.26087 79.5424,122.26087 L79.5424,122.26087 Z" id="Path" fill="#E14658" sketch:type="MSShapeGroup" mask="url(#mask-2)"></path>
                <path d="M69.9744,42.270087 C69.856,39.6543478 70.7552,36.9903478 72.7424,34.985913 C76.4992,31.2151304 82.576,31.2215652 86.3264,34.985913 C88.464,37.1383478 89.3376,40.0436522 89.0368,42.8524348 C89.0304,43.0583478 89.056,43.273913 89.0368,43.4766087 L82.9312,92.0431304 C82.7072,93.8223478 81.088,96.7373043 79.3184,96.5088696 C77.8368,96.3190435 76.72,93.4684348 76.5312,92.0431304 L69.9744,43.4830435 C69.92,43.0165217 69.9552,42.6497391 69.9744,42.270087 L69.9744,42.270087 Z" id="Path" fill="#E14658" sketch:type="MSShapeGroup" mask="url(#mask-2)"></path>
            </g>
        </g>
    </g>
</svg>