<?xml version="1.0" encoding="UTF-8" standalone="no"?>
<svg width="301px" height="301px" viewBox="0 0 301 301" version="1.1" xmlns="http://www.w3.org/2000/svg" xmlns:xlink="http://www.w3.org/1999/xlink" xmlns:sketch="http://www.bohemiancoding.com/sketch/ns">
    <!-- Generator: Sketch 3.1 (8751) - http://www.bohemiancoding.com/sketch -->
    <title>add-jam-logo</title>
    <desc>Created with Sketch.</desc>
    <defs></defs>
    <g id="Mobile" stroke="none" stroke-width="1" fill="none" fill-rule="evenodd" sketch:type="MSPage">
        <g id="Desktop-HD-7" sketch:type="MSArtboardGroup" transform="translate(-170.000000, -129.000000)">
            <g id="Top" sketch:type="MSLayerGroup">
                <g id="add-jam-logo" transform="translate(170.000000, 129.000000)">
                    <path d="M150.196729,-0.0310384217 L160.075299,11.9026769 L171.549293,1.49501908 L179.633861,14.7140502 L192.474778,6.04462902 L198.589889,20.2810318 L212.533866,13.5321037 L216.565269,28.4893714 L231.328039,23.7928682 L233.191407,39.1744942 L248.465583,36.6229043 L248.118752,52.1106198 L263.603747,51.7651486 L261.056238,67.0461255 L276.435144,68.9026928 L271.741361,83.6668231 L286.697268,87.6927859 L279.94698,101.638122 L294.180663,107.754594 L285.515322,120.598231 L298.737073,128.675999 L288.328055,140.156793 L300.26177,150.034003 L288.328055,159.909853 L298.737073,171.387927 L285.515322,179.471135 L294.180663,192.309332 L279.94698,198.428524 L286.697268,212.37386 L271.741361,216.402543 L276.435144,231.168034 L261.056238,233.024601 L263.603747,248.309658 L248.118752,247.962827 L248.465583,263.449182 L233.191407,260.905753 L231.328039,276.275138 L216.565269,271.577275 L212.533866,286.542703 L198.589889,279.792415 L192.474778,294.020657 L179.633861,285.355316 L171.549293,298.577067 L160.075299,288.16805 L150.196729,300.104485 L140.315439,288.16805 L128.838725,298.577067 L120.756876,285.355316 L107.914599,294.020657 L101.799488,279.792415 L87.8555118,286.542703 L83.8241085,271.577275 L69.0640586,276.275138 L67.2047711,260.905753 L51.9224341,263.449182 L52.2747058,247.962827 L36.78427,248.309658 L39.3358599,233.024601 L23.9528739,231.168034 L28.6507372,216.402543 L13.6934695,212.37386 L20.4423976,198.428524 L6.2114353,192.309332 L14.8781362,179.471135 L1.65910512,171.387927 L12.0640426,159.909853 L0.133047613,150.034003 L12.0640426,140.156793 L1.65910512,128.675999 L14.8781362,120.598231 L6.2114353,107.754594 L20.4423976,101.638122 L13.6934695,87.6927859 L28.6507372,83.6668231 L23.9528739,68.9026928 L39.3358599,67.0461255 L36.78427,51.7651486 L52.2747058,52.1106198 L51.9224341,36.6229043 L67.2047711,39.1744942 L69.0640586,23.7928682 L83.829549,28.4893714 L87.8555118,13.5321037 L101.799488,20.2810318 L107.914599,6.04462902 L120.756876,14.7140502 L128.838725,1.49501908 L140.315439,11.9026769 L150.196729,-0.0310384217 Z M150.196729,278.40781 C79.4105108,278.40781 21.822922,220.821581 21.822922,150.035363 C21.822922,79.2491451 79.4105108,21.6615562 150.196729,21.6615562 C220.980227,21.6615562 278.569176,79.2491451 278.569176,150.035363 C278.569176,220.821581 220.980227,278.40781 150.196729,278.40781 Z M150.196729,23.0665628 C80.1857807,23.0665628 23.2292887,80.0230548 23.2292887,150.034003 C23.2292887,220.044951 80.1844206,277.001443 150.196729,277.001443 C220.203597,277.001443 277.161449,220.044951 277.161449,150.034003 C277.162809,80.0230548 220.204957,23.0665628 150.196729,23.0665628 Z M150.196729,249.694263 C95.249138,249.694263 50.5419097,204.987035 50.5419097,150.034003 C50.5419097,95.0864121 95.249138,50.3846242 150.196729,50.3846242 C205.14432,50.3846242 249.846108,95.0864121 249.846108,150.034003 C249.846108,204.987035 205.14432,249.694263 150.196729,249.694263 Z M150.196729,51.7923511 C96.0244078,51.7923511 51.9496365,95.8616819 51.9496365,150.034003 C51.9496365,204.211765 96.0244078,248.286536 150.196729,248.286536 C204.36633,248.286536 248.438381,204.211765 248.438381,150.034003 C248.438381,95.8616819 204.36769,51.7923511 150.196729,51.7923511 Z M131.4488,145.648968 L122.644726,145.648968 L121.13227,135.57454 L110.429466,135.57454 L108.91837,145.648968 L100.911328,145.648968 L109.791568,90.1287654 L122.563119,90.1287654 L131.4488,145.648968 Z M111.539326,128.040821 L119.944883,128.040821 L115.736664,99.9624514 L111.539326,128.040821 L111.539326,128.040821 Z M137.567991,90.1287654 L151.370515,90.1287654 C160.097061,90.1287654 164.385527,94.9653611 164.385527,103.845601 L164.385527,131.925331 C164.385527,140.812372 160.097061,145.647608 151.370515,145.647608 L137.567991,145.647608 L137.567991,90.1287654 L137.567991,90.1287654 Z M146.294537,98.05964 L146.294537,137.720814 L151.219541,137.720814 C153.994191,137.720814 155.658981,136.287244 155.658981,132.330648 L155.658981,103.451166 C155.658981,99.4904889 153.994191,98.05964 151.219541,98.05964 L146.294537,98.05964 L146.294537,98.05964 Z M172.009014,90.1287654 L185.811538,90.1287654 C194.538084,90.1287654 198.82383,94.9653611 198.82383,103.845601 L198.82383,131.925331 C198.82383,140.812372 194.538084,145.647608 185.811538,145.647608 L172.009014,145.647608 L172.009014,90.1287654 L172.009014,90.1287654 Z M180.736921,98.05964 L180.736921,137.720814 L185.657844,137.720814 C188.433854,137.720814 190.098644,136.287244 190.098644,132.330648 L190.098644,103.451166 C190.098644,99.4904889 188.432494,98.05964 185.657844,98.05964 L180.736921,98.05964 L180.736921,98.05964 Z M103.354108,203.154949 C104.304834,203.231116 105.414694,203.231116 106.36678,203.231116 C109.14143,203.231116 111.36795,202.200143 111.36795,197.917118 L111.36795,155.562901 L120.094497,155.562901 L120.094497,197.28194 C120.094497,208.385981 114.1426,211.238158 107.563688,211.238158 C105.975064,211.238158 104.786317,211.238158 103.354108,211.081744 L103.354108,203.154949 L103.354108,203.154949 Z M156.347203,211.081744 L147.54449,211.081744 L146.033394,201.008676 L135.330589,201.008676 L133.818133,211.081744 L125.816532,211.081744 L134.695412,155.562901 L147.468323,155.562901 L156.347203,211.081744 Z M136.437729,193.473597 L144.847367,193.473597 L140.639148,165.396587 L136.437729,193.473597 L136.437729,193.473597 Z M180.95318,194.979253 L186.907797,155.562901 L199.033289,155.562901 L199.033289,211.081744 L190.786866,211.081744 L190.786866,171.264156 L184.758803,211.081744 L176.51374,211.081744 L170.010994,171.821806 L170.010994,211.081744 L162.390228,211.081744 L162.390228,155.562901 L174.526601,155.562901 L180.95318,194.979253 L180.95318,194.979253 Z M85.06182,151.317959 L210.975165,151.317959 M38.6109146,156.948556 C42.4959914,156.948556 45.6454685,153.799079 45.6454685,149.914002 C45.6454685,146.028926 42.4959914,142.879449 38.6109146,142.879449 C34.7258378,142.879449 31.5763608,146.028926 31.5763608,149.914002 C31.5763608,153.799079 34.7258378,156.948556 38.6109146,156.948556 Z M264.391258,157.948556 C268.276335,157.948556 271.425812,154.799079 271.425812,150.914002 C271.425812,147.028926 268.276335,143.879449 264.391258,143.879449 C260.506182,143.879449 257.356705,147.028926 257.356705,150.914002 C257.356705,154.799079 260.506182,157.948556 264.391258,157.948556 Z" id="Shape" fill="#FFFFFF" sketch:type="MSShapeGroup"></path>
                    <g id="Add" transform="translate(100.942611, 90.474546)"></g>
                    <g id="Jam" transform="translate(103.662856, 155.120551)"></g>
                </g>
            </g>
        </g>
    </g>
</svg>