<?xml version="1.0" encoding="UTF-8" standalone="no"?>
<svg width="482px" height="324px" viewBox="0 0 482 324" version="1.1" xmlns="http://www.w3.org/2000/svg" xmlns:xlink="http://www.w3.org/1999/xlink" xmlns:sketch="http://www.bohemiancoding.com/sketch/ns">
    <!-- Generator: Sketch 3.1 (8751) - http://www.bohemiancoding.com/sketch -->
    <title>ipad + iPhone</title>
    <desc>Created with Sketch.</desc>
    <defs>
        <linearGradient x1="50%" y1="-19.7554743%" x2="50%" y2="233.631732%" id="linearGradient-1">
            <stop stop-color="#E14658" offset="0%"></stop>
            <stop stop-color="#FF0000" offset="100%"></stop>
        </linearGradient>
        <linearGradient x1="50%" y1="0%" x2="50%" y2="100%" id="linearGradient-2">
            <stop stop-color="#4E86CA" offset="0%"></stop>
            <stop stop-color="#9BB3EB" offset="100%"></stop>
        </linearGradient>
    </defs>
    <g id="Mobile" stroke="none" stroke-width="1" fill="none" fill-rule="evenodd" sketch:type="MSPage">
        <g id="Desktop-HD-7" sketch:type="MSArtboardGroup" transform="translate(-80.000000, -3371.000000)">
            <g id="Rectangle-7-+-PRODUCTS" sketch:type="MSLayerGroup" transform="translate(0.000000, 2415.000000)">
                <g id="We-make" sketch:type="MSShapeGroup">
                    <g id="ipad-+-iPhone" transform="translate(81.000000, 957.000000)">
                        <g id="ipad" transform="translate(80.000000, 0.000000)">
                            <g transform="translate(200.500000, 149.000000) rotate(-270.000000) translate(-200.500000, -149.000000) translate(52.000000, -51.000000)">
                                <rect id="Rectangle-7" fill="url(#linearGradient-1)" x="24" y="13" width="252" height="335"></rect>
                                <path d="M29.638225,29.6296296 L267.238225,29.6296296 L267.238225,340.740741 L29.638225,340.740741 L29.638225,29.6296296 Z M141.013225,355.555556 L155.863225,355.555556 L155.863225,370.37037 L141.013225,370.37037 L141.013225,355.555556 Z M267.238225,-4.54747351e-13 L29.638225,-4.54747351e-13 C13.570525,-4.54747351e-13 -0.061775,13.2666667 -0.061775,29.6296296 L-0.061775,370.37037 C-0.061775,386.733333 13.570525,400 29.638225,400 L267.238225,400 C283.305925,400 296.938225,386.733333 296.938225,370.37037 L296.938225,29.6296296 C296.938225,13.2666667 283.305925,-4.54747351e-13 267.238225,-4.54747351e-13 L267.238225,-4.54747351e-13 Z" id="Fill-2342" stroke="#4F5865" fill="#FFFFFF"></path>
                            </g>
                            <g id="add-jam-logo-2" transform="translate(140.000000, 89.000000)">
                                <path d="M60.0786916,-0.0124153687 L64.0301196,4.76107074 L68.6197172,0.598007633 L71.8535446,5.88562007 L76.9899114,2.41785161 L79.4359558,8.11241271 L85.0135463,5.41284147 L86.6261076,11.3957486 L92.5312157,9.51714728 L93.2765629,15.6697977 L99.3862334,14.6491617 L99.2475009,20.8442479 L105.441499,20.7060595 L104.422495,26.8184502 L110.574057,27.5610771 L108.696544,33.4667292 L114.678907,35.0771143 L111.978792,40.655249 L117.672265,43.1018374 L114.206129,48.2392923 L119.494829,51.4703994 L115.331222,56.0627172 L120.104708,60.0136012 L115.331222,63.9639412 L119.494829,68.5551709 L114.206129,71.7884542 L117.672265,76.9237329 L111.978792,79.3714094 L114.678907,84.9495441 L108.696544,86.5610173 L110.574057,92.4672134 L104.422495,93.2098403 L105.441499,99.3238632 L99.2475009,99.1851307 L99.3862334,105.379673 L93.2765629,104.362301 L92.5312157,110.510055 L86.6261076,108.63091 L85.0135463,114.617081 L79.4359558,111.916966 L76.9899114,117.608263 L71.8535446,114.142126 L68.6197172,119.430827 L64.0301196,115.26722 L60.0786916,120.041794 L56.1261755,115.26722 L51.5354898,119.430827 L48.3027505,114.142126 L43.1658397,117.608263 L40.7197953,111.916966 L35.1422047,114.617081 L33.5296434,108.63091 L27.6256234,110.510055 L26.8819084,104.362301 L20.7689736,105.379673 L20.9098823,99.1851307 L14.713708,99.3238632 L15.734344,93.2098403 L9.58114955,92.4672134 L11.4602949,86.5610173 L5.47738779,84.9495441 L8.17695903,79.3714094 L2.48457412,76.9237329 L5.95125448,71.7884542 L0.663642047,68.5551709 L4.82561706,63.9639412 L0.0532190453,60.0136012 L4.82561706,56.0627172 L0.663642047,51.4703994 L5.95125448,48.2392923 L2.48457412,43.1018374 L8.17695903,40.655249 L5.47738779,35.0771143 L11.4602949,33.4667292 L9.58114955,27.5610771 L15.734344,26.8184502 L14.713708,20.7060595 L20.9098823,20.8442479 L20.7689736,14.6491617 L26.8819084,15.6697977 L27.6256234,9.51714728 L33.5318196,11.3957486 L35.1422047,5.41284147 L40.7197953,8.11241271 L43.1658397,2.41785161 L48.3027505,5.88562007 L51.5354898,0.598007633 L56.1261755,4.76107074 L60.0786916,-0.0124153687 Z" id="Shape" fill="#FFFFFF"></path>
                                <path d="M60.0786916,111.363124 C31.7642043,111.363124 8.72916878,88.3286325 8.72916878,60.0141453 C8.72916878,31.699658 31.7642043,8.66462247 60.0786916,8.66462247 C88.3920907,8.66462247 111.42767,31.699658 111.42767,60.0141453 C111.42767,88.3286325 88.3920907,111.363124 60.0786916,111.363124 L60.0786916,111.363124 Z M60.0786916,9.22662511 C32.0743123,9.22662511 9.29171547,32.0092219 9.29171547,60.0136012 C9.29171547,88.0179805 32.0737682,110.800577 60.0786916,110.800577 C88.0814388,110.800577 110.86458,88.0179805 110.86458,60.0136012 C110.865124,32.0092219 88.0819828,9.22662511 60.0786916,9.22662511 L60.0786916,9.22662511 Z" id="Shape" fill="#E14658"></path>
                                <path d="M60.0786916,99.8777051 C38.0996552,99.8777051 20.2167639,81.9948138 20.2167639,60.0136012 C20.2167639,38.0345648 38.0996552,20.1538497 60.0786916,20.1538497 C82.057728,20.1538497 99.9384431,38.0345648 99.9384431,60.0136012 C99.9384431,81.9948138 82.057728,99.8777051 60.0786916,99.8777051 L60.0786916,99.8777051 Z M60.0786916,20.7169404 C38.4097631,20.7169404 20.7798546,38.3446728 20.7798546,60.0136012 C20.7798546,81.6847059 38.4097631,99.3146144 60.0786916,99.3146144 C81.746532,99.3146144 99.3753524,81.6847059 99.3753524,60.0136012 C99.3753524,38.3446728 81.747076,20.7169404 60.0786916,20.7169404 L60.0786916,20.7169404 Z" id="Shape" fill="#E14658"></path>
                                <g id="Add" transform="translate(40.377044, 36.189819)" fill="#E14658">
                                    <path d="M12.2024755,22.0697686 L8.68084618,22.0697686 L8.07586367,18.0399975 L3.79474192,18.0399975 L3.19030346,22.0697686 L-0.0125131275,22.0697686 L3.53958293,-0.138312421 L8.64820324,-0.138312421 L12.2024755,22.0697686 L12.2024755,22.0697686 Z M4.23868592,15.02651 L7.60090887,15.02651 L5.9176212,3.795162 L4.23868592,15.02651 L4.23868592,15.02651 Z" id="Shape"></path>
                                    <path d="M14.650152,-0.138312421 L20.1711615,-0.138312421 C23.66178,-0.138312421 25.3771666,1.7963259 25.3771666,5.34842196 L25.3771666,16.580314 C25.3771666,20.1351303 23.66178,22.0692246 20.1711615,22.0692246 L14.650152,22.0692246 L14.650152,-0.138312421 L14.650152,-0.138312421 Z M18.1407706,3.03403742 L18.1407706,18.8985069 L20.1107721,18.8985069 C21.2206321,18.8985069 21.8865481,18.3250792 21.8865481,16.7424406 L21.8865481,5.19064774 C21.8865481,3.60637699 21.2206321,3.03403742 20.1107721,3.03403742 L18.1407706,3.03403742 L18.1407706,3.03403742 Z" id="Shape"></path>
                                    <path d="M28.4265614,-0.138312421 L33.9475708,-0.138312421 C37.4381893,-0.138312421 39.1524878,1.7963259 39.1524878,5.34842196 L39.1524878,16.580314 C39.1524878,20.1351303 37.4381893,22.0692246 33.9475708,22.0692246 L28.4265614,22.0692246 L28.4265614,-0.138312421 L28.4265614,-0.138312421 Z M31.9177239,3.03403742 L31.9177239,18.8985069 L33.8860933,18.8985069 C34.9964973,18.8985069 35.6624133,18.3250792 35.6624133,16.7424406 L35.6624133,5.19064774 C35.6624133,3.60637699 34.9959533,3.03403742 33.8860933,3.03403742 L31.9177239,3.03403742 L31.9177239,3.03403742 Z" id="Shape"></path>
                                </g>
                                <g id="Jam" transform="translate(41.465142, 62.048221)" fill="#E14658">
                                    <path d="M-0.123499128,19.2137592 C0.256791138,19.2442259 0.700735139,19.2442259 1.08156945,19.2442259 C2.19142946,19.2442259 3.0820377,18.8318368 3.0820377,17.1186264 L3.0820377,0.176939901 L6.57265622,0.176939901 L6.57265622,16.8645555 C6.57265622,21.3061717 4.19189771,22.4470425 1.56033259,22.4470425 C0.924883336,22.4470425 0.449384491,22.4470425 -0.123499128,22.3844769 L-0.123499128,19.2137592 L-0.123499128,19.2137592 Z" id="Shape"></path>
                                    <path d="M21.0737388,22.3844769 L17.5526536,22.3844769 L16.9482151,18.3552498 L12.6670934,18.3552498 L12.0621108,22.3844769 L8.86147046,22.3844769 L12.4130225,0.176939901 L17.5221868,0.176939901 L21.0737388,22.3844769 L21.0737388,22.3844769 Z M13.1099493,15.3412183 L16.4738044,15.3412183 L14.7905167,4.11041432 L13.1099493,15.3412183 L13.1099493,15.3412183 Z" id="Shape"></path>
                                    <path d="M30.9161297,15.9434805 L33.2979763,0.176939901 L38.1481733,0.176939901 L38.1481733,22.3844769 L34.8496041,22.3844769 L34.8496041,6.4574418 L32.4383788,22.3844769 L29.1403537,22.3844769 L26.5392553,6.6805019 L26.5392553,22.3844769 L23.4909486,22.3844769 L23.4909486,0.176939901 L28.345498,0.176939901 L30.9161297,15.9434805 L30.9161297,15.9434805 Z" id="Shape"></path>
                                </g>
                                <path d="M34.024728,60.5271835 L84.3900661,60.5271835" id="Shape" stroke="#E14658" stroke-width="0.5"></path>
                                <circle id="Oval" fill="#E14658" cx="15.4443659" cy="59.9656009" r="2.81382154"></circle>
                                <circle id="Oval" fill="#E14658" cx="105.756503" cy="60.3656009" r="2.81382154"></circle>
                            </g>
                        </g>
                        <g id="iPhone" transform="translate(0.000000, 52.000000)">
                            <path d="M18,39 L140,39 L140,230 L18,230 L18,39 Z" id="Fill-2336" fill="url(#linearGradient-2)"></path>
                            <g id="Apps-Row-1" transform="translate(27.000000, 46.000000)">
                                <rect id="Rectangle-11" fill="#F8E81C" x="0" y="0" width="23" height="23" rx="6"></rect>
                                <rect id="Rectangle-12" fill="#E14658" x="27" y="0" width="23" height="23" rx="6"></rect>
                                <rect id="Rectangle-13" fill="#8EDE8E" x="54" y="0" width="23" height="23" rx="6"></rect>
                                <rect id="Rectangle-14" fill="#FF00E4" x="81" y="0" width="23" height="23" rx="6"></rect>
                            </g>
                            <g id="Apps-Row-2" transform="translate(27.000000, 77.000000)">
                                <rect id="Rectangle-11" fill="#7ED321" x="0" y="0" width="23" height="23" rx="6"></rect>
                                <rect id="Rectangle-12" fill="#3533A3" x="27" y="0" width="23" height="23" rx="6"></rect>
                                <rect id="Rectangle-13" fill="#FEE9A0" x="54" y="0" width="23" height="23" rx="6"></rect>
                                <rect id="Rectangle-14" fill="#81CD71" x="81" y="0" width="23" height="23" rx="6"></rect>
                            </g>
                            <g id="Apps-Row-3" transform="translate(27.000000, 108.000000)">
                                <rect id="Rectangle-11" fill="#49AADB" x="0" y="0" width="23" height="23" rx="6"></rect>
                                <rect id="Rectangle-12" fill="#8BEFFE" x="27" y="0" width="23" height="23" rx="6"></rect>
                                <rect id="Rectangle-13" fill="#E22171" x="54" y="0" width="23" height="23" rx="6"></rect>
                                <rect id="Rectangle-14" fill="#50E3C2" x="81" y="0" width="23" height="23" rx="6"></rect>
                            </g>
                            <g id="Apps-Row-4" transform="translate(27.000000, 139.000000)">
                                <rect id="Rectangle-11" fill="#BD0FE1" x="0" y="0" width="23" height="23" rx="6"></rect>
                                <rect id="Rectangle-12" fill="#E14658" x="27" y="0" width="23" height="23" rx="6"></rect>
                                <rect id="Rectangle-13" fill="#F8E81C" x="54" y="0" width="23" height="23" rx="6"></rect>
                                <rect id="Rectangle-14" fill="#D0011B" x="81" y="0" width="23" height="23" rx="6"></rect>
                            </g>
                            <g id="Apps-Row-5" transform="translate(27.000000, 170.000000)">
                                <rect id="Rectangle-11" fill="#1CF847" x="0" y="0" width="23" height="23" rx="6"></rect>
                                <rect id="Rectangle-12" fill="#50529B" x="27" y="0" width="23" height="23" rx="6"></rect>
                                <rect id="Rectangle-13" fill="#881984" x="54" y="0" width="23" height="23" rx="6"></rect>
                                <rect id="Rectangle-14" fill="#50E3C2" x="81" y="0" width="23" height="23" rx="6"></rect>
                            </g>
                            <rect id="Rectangle-15" fill-opacity="0.4" fill="#787575" x="20" y="198" width="120" height="32"></rect>
                            <g id="Apps-Row-6" transform="translate(27.000000, 203.000000)">
                                <rect id="Rectangle-11" fill="#F88E1C" x="0" y="0" width="23" height="23" rx="6"></rect>
                                <rect id="Rectangle-12" fill="#7ED321" x="27" y="0" width="23" height="23" rx="6"></rect>
                                <rect id="Rectangle-13" fill="#2FC6E1" x="54" y="0" width="23" height="23" rx="6"></rect>
                                <rect id="Rectangle-14" fill="#67E350" x="81" y="0" width="23" height="23" rx="6"></rect>
                            </g>
                            <path d="M20,40 L140,40 L140,230 L20,230 L20,40 Z M75,240 L85,240 L85,250 L75,250 L75,240 Z M50,20 L60,20 L60,30 L50,30 L50,20 Z M70,20 L110,20 L110,30 L70,30 L70,20 Z M20,0 C9.18,0 0,8.955 0,20 L0,250 C0,261.045 9.18,270 20,270 L140,270 C150.82,270 160,261.045 160,250 L160,20 C160,8.955 150.82,0 140,0 L20,0 Z" id="Fill-2338" stroke="#4F5865" fill="#FFFFFF"></path>
                            <circle id="Oval-17" stroke="#C9C9C9" fill="#F0F0F0" cx="80" cy="249" r="14"></circle>
                            <rect id="Rectangle-42" fill="#4F5865" x="70" y="20" width="40" height="10"></rect>
                        </g>
                    </g>
                </g>
            </g>
        </g>
    </g>
</svg>