<?xml version="1.0" encoding="UTF-8" standalone="no"?>
<svg width="133px" height="170px" viewBox="0 0 133 170" version="1.1" xmlns="http://www.w3.org/2000/svg" xmlns:xlink="http://www.w3.org/1999/xlink" xmlns:sketch="http://www.bohemiancoding.com/sketch/ns">
    <!-- Generator: Sketch 3.1 (8751) - http://www.bohemiancoding.com/sketch -->
    <title>location</title>
    <desc>Created with Sketch.</desc>
    <defs></defs>
    <g id="Desktop" stroke="none" stroke-width="1" fill="none" fill-rule="evenodd" sketch:type="MSPage">
        <g id="Desktop-HD-5" sketch:type="MSArtboardGroup" transform="translate(-634.000000, -2093.000000)">
            <g id="location" sketch:type="MSLayerGroup" transform="translate(634.000000, 2093.000000)">
                <ellipse id="Oval-39" fill="#E14658" sketch:type="MSShapeGroup" cx="66.5" cy="155" rx="66.5" ry="15"></ellipse>
                <path d="M66.5,66.3703704 C56.0054688,66.3703704 47.5,57.8666667 47.5,47.4074074 C47.5,36.9481481 56.0054688,28.4444444 66.5,28.4444444 C76.9975,28.4444444 85.5029688,36.9481481 85.5029688,47.4074074 C85.5029688,57.8666667 76.9975,66.3703704 66.5,66.3703704 L66.5,66.3703704 Z M66.5,0 C40.268125,0 19,21.2148148 19,47.4074074 C19,53.6888889 20.4160938,60.1185185 22.6426563,65.6 C22.8742187,66.162963 23.1414063,66.6962963 23.3967188,67.2296296 L66.5,160 L109.60625,67.2296296 C109.861563,66.6962963 110.12875,66.162963 110.360313,65.6 L110.517656,65.1851852 C112.747188,59.6740741 114,53.6888889 114,47.4074074 C114,21.2148148 92.731875,0 66.5,0 L66.5,0 Z" id="Fill-849" fill="#FFFFFF" sketch:type="MSShapeGroup"></path>
            </g>
        </g>
    </g>
</svg>